<?xml version="1.0" encoding="utf-8"?>
<!-- Generator: Adobe Illustrator 26.0.3, SVG Export Plug-In . SVG Version: 6.00 Build 0)  -->
<svg version="1.0" id="katman_1" xmlns="http://www.w3.org/2000/svg" xmlns:xlink="http://www.w3.org/1999/xlink" x="0px" y="0px"
	 viewBox="0 0 600 450" style="enable-background:new 0 0 600 450;" xml:space="preserve">
<style type="text/css">
	.st0{fill:#FFFFFF;}
	.st1{fill:url(#SVGID_1_);}
	.st2{fill:url(#SVGID_00000155122952522380833860000006069366827474227377_);}
</style>
<path class="st0" d="M136,300.3c38.5,0,69.8-31.2,69.8-69.8c0-38.5-31.2-69.8-69.8-69.8c-38.5,0-69.8,31.2-69.8,69.8
	C66.2,269,97.4,300.3,136,300.3z"/>
<linearGradient id="SVGID_1_" gradientUnits="userSpaceOnUse" x1="281.9359" y1="177.2184" x2="265.4719" y2="86.5168" gradientTransform="matrix(1 0 0 -1 -120.9449 379.3622)">
	<stop  offset="0" style="stop-color:#EA4B6C"/>
	<stop  offset="1" style="stop-color:#E42848"/>
</linearGradient>
<path class="st1" d="M190,186.9c-4.8,1-9.5,2.3-13.3,3.2c-8.7,1.9-16.8,8.6-18.5,20.7c-1.6,10.9,2.1,15.5,0.5,28.2
	c-2.8,22.1-24,29.7-33.9,34.3c-5.7,2.6-19.6,8.7-30.3,13.4c11.6,8.6,25.9,13.6,41.4,13.6c38.6,0,69.8-31.2,69.8-69.8
	c0-16.4-5.7-31.5-15.2-43.4C190.4,187,190.2,187,190,186.9z"/>
<linearGradient id="SVGID_00000040555113734062476630000005168249205978554284_" gradientUnits="userSpaceOnUse" x1="227.2224" y1="113.6191" x2="263.6242" y2="216.4185" gradientTransform="matrix(1 0 0 -1 -120.9449 379.3622)">
	<stop  offset="1.812290e-03" style="stop-color:#335AA6"/>
	<stop  offset="1" style="stop-color:#3895D2"/>
</linearGradient>
<path style="fill:url(#SVGID_00000040555113734062476630000005168249205978554284_);" d="M128.1,220.2c5.4-11.6,3.4-11.6,7.5-22.6
	c5.1-13.8,21.2-9.9,25.6-9.3c7.3,1,9.2-1.6,24.6-4.1c0.8-0.1,1.5-0.2,2.2-0.3c-12.8-14.3-31.3-23.3-52-23.3
	c-27.8,0-51.7,16.2-63,39.7C96,206.1,120.9,218.5,128.1,220.2z M112.9,172.8c2,0.3,11.9,12.6,13.7,44c0,0-12.7-3-15.4-9.6
	C109,201.9,111.9,194.8,112.9,172.8z M190.5,186.9c0,0.1,0.1,0.1,0.1,0.1c-0.2,0-0.4,0-0.5-0.1C190.2,186.9,190.3,186.9,190.5,186.9
	z M66.2,230.5c0-5.6,0.6-11,1.9-16.2c2.5,2.1,5.2,4.4,8.1,7.1c18.2,16.9,47.8,30.2,58.5,17.8c0,0,0.1,0,0.1,0.1
	c-2,2.6-9.5,10.8-23.8,8.2l-22.7,33.9C74.7,268.6,66.2,250.6,66.2,230.5z"/>
<path d="M476.2,219c-0.9-2-2.3-4.1-4-5.2c-2-1.5-4.3-2.6-7.4-3.5c-4-1.2-9.7-1.5-16.3-1.2c-1.7,0-3.4,0.3-5.2,0.3
	c-1.7,0.3-3.4,0.3-5.2,0.6c-1.4,0.3-2.9,0.3-4,0.6v11c1.1-0.3,2.6-0.6,3.7-0.9c1.7-0.3,3.4-0.6,5.2-0.9c1.7-0.3,3.4-0.3,5.2-0.6
	c4.9-0.3,8.9-0.3,11.2,0.3c1.7,0.3,3.1,0.9,4,1.5c0.9,0.6,1.4,1.5,1.7,2.6c0.3,0.9,0.6,1.7,0.6,2.9v0.9l-0.9-0.3
	c-3.7-1.2-8.3-1.5-13.5-1.5c-4.3,0-7.7,0.3-10.6,0.9c-2.9,0.6-5.2,1.5-6.9,2.6c-1.7,1.2-2.9,2.3-3.4,3.8c-0.6,1.5-0.9,2.9-0.9,4.6
	v0.9c0,1.7,0.3,3.5,1.1,4.9c0.6,1.5,1.7,2.9,3.4,4.4c1.7,1.2,4,2.3,6.9,2.9c2.9,0.9,6.6,1.2,10.9,1.2c3.7,0,7.2-0.3,10-1.2
	c2.9-0.6,3.4-0.9,6-2c0.9-0.6,3.1-0.9,4.6-0.3l2.6,1.5h2.6v-24.4C477.6,223.9,477,221.3,476.2,219z M465.6,241.7H465
	c-3.7,1.2-7.7,1.7-12.3,1.7c-2.6,0-4.9,0-6.3-0.3c-1.4-0.3-2.6-0.3-3.4-0.9c-0.9-0.3-1.4-0.9-1.7-1.5c-0.3-0.6-0.3-1.2-0.3-1.7
	s0-0.9,0.3-1.5c0.3-0.6,0.9-1.2,1.4-1.5c0.6-0.3,1.7-0.9,3.1-0.9c1.4-0.3,3.4-0.3,5.7-0.3c2.6,0,4.9,0,7.2,0.3c2,0.3,4,0.6,6,1.2
	h0.6v5.2H465.6z"/>
<path d="M276.1,214.3c-1.7-1.7-4-3.2-6.9-4.4c-2.9-1.2-6.6-1.7-11.2-1.7c-2.3,0-4.6,0.3-6.6,0.6c-2,0.3-4,0.9-6,1.5l-0.9,0.3v-15.7
	l-9.4-5.5h-2.3v42.4c0,2.9,0.3,5.5,1.1,7.8c0.6,2.3,2,4.4,3.7,6.4c1.7,1.7,4,3.2,6.9,4.4c2.9,1.2,6.6,1.7,11.2,1.7h2.3
	c4.6,0,8.3-0.6,11.2-1.7c2.9-0.9,5.4-2.3,7.2-4.4c1.7-1.7,2.9-3.8,3.7-6.4c0.6-2.6,1.1-5.2,1.1-7.8v-3.2c0-2.9-0.3-5.5-1.1-7.8
	C279.2,218.1,277.8,216.1,276.1,214.3z M268.9,234.1c0,1.5-0.6,2.6-1.4,3.8c-0.9,0.9-2,1.7-3.7,2.6c-1.7,0.6-4,0.9-6.9,0.9
	c-2.9,0-5.2-0.3-6.9-0.9s-2.9-1.5-3.7-2.6c-0.9-1.2-1.1-2.3-1.4-3.8c0-1.2-0.3-2.6-0.3-4.1v-9h0.3c1.7-0.6,3.7-1.2,5.7-1.5
	c2-0.3,4-0.6,6.6-0.6c2.9,0,5.2,0.3,6.6,0.9c1.4,0.6,2.9,1.5,3.4,2.3c0.9,1.2,1.1,2.3,1.4,3.8c0,1.2,0.3,2.6,0.3,4.1
	C268.9,231.5,268.9,232.9,268.9,234.1z"/>
<path d="M295.3,189.3h-0.6c-2.6,0-4.3,0.6-5.2,1.5c-0.9,1.2-1.4,2.3-1.4,4.1v0.9c0,1.5,0.6,2.9,1.4,4.1c0.9,1.2,2.6,1.5,5.2,1.5h0.6
	c2.6,0,4.3-0.6,5.2-1.5c0.9-1.2,1.1-2.3,1.1-4.1v-0.9c0-1.5-0.6-2.9-1.4-4.1C299.6,189.9,297.8,189.3,295.3,189.3z"/>
<path d="M289,210v40.4h12v-34.9l-9.4-5.5H289z"/>
<path d="M347.9,229.4c-1.1-0.9-2.6-1.7-4-2.3c-1.4-0.6-3.1-0.9-4.9-1.2c-1.4-0.3-3.1-0.6-4.6-0.6c-1.4,0-2.9,0-3.7-0.3
	c-3.4,0-5.7-0.3-7.2-0.6c-2.3-0.6-2.6-1.7-2.6-2.9c0-0.6,0-0.9,0.3-1.2s0.6-0.9,1.4-1.2c0.6-0.3,1.7-0.6,2.9-0.6
	c1.1-0.3,2.9-0.3,5.2-0.3c3.4,0,6.9,0.3,10,0.6c2.9,0.3,6,0.9,9.2,1.5v-10.2c-2.6-0.6-5.2-1.2-8-1.5c-2.9-0.3-6-0.6-8.9-0.6h-2.9
	c-4.3,0-7.7,0.3-10.6,1.2c-2.6,0.6-4.9,1.7-6.6,2.9c-1.7,1.2-2.9,2.6-3.4,4.1c-0.6,1.5-0.9,3.2-0.9,4.9v0.9c0,2,0.3,3.8,1.1,5.2
	c0.9,1.5,1.7,2.6,2.9,3.5c1.1,0.9,2.6,1.7,4,2.3c1.4,0.6,3.1,0.9,4.6,1.2c1.7,0.3,3.1,0.6,4.6,0.6c1.4,0,2.9,0.3,4,0.3
	c3.4,0,5.7,0.3,7.2,0.6c2.3,0.3,2.9,1.7,2.9,2.9c0,0.3,0,0.9-0.3,1.2c-0.3,0.3-0.6,0.9-1.4,1.2c-0.6,0.3-1.7,0.6-2.9,0.6
	c-1.1,0.3-2.9,0.3-4.9,0.3c-3.4,0-7.4-0.3-11.2-0.6c-3.4-0.3-7.2-0.9-10.3-1.7v10.2c3.1,0.6,6,1.2,9.2,1.5c3.1,0.3,6.9,0.6,10.3,0.6
	h2.3c4.3,0,7.7-0.3,10.3-1.2c2.9-0.6,4.9-1.7,6.6-2.9c1.7-1.2,2.6-2.6,3.4-4.1c0.6-1.5,1.1-3.2,1.1-4.9v-0.9c0-2-0.3-3.8-1.1-5.2
	C349.9,231.5,349.1,230.3,347.9,229.4z"/>
<path d="M406.3,236.4L396,210h-9.2l-10,26.4L366.5,210h-10.6v2.6l15.5,37.8H382l9.4-24.4l9.4,24.4h10.6l15.7-37.8V210h-10.9
	L406.3,236.4z"/>
<path d="M531.7,221.3c-0.6-2.3-2-4.4-3.7-6.4c-1.7-1.7-4-3.2-7.2-4.4c-2.9-1.2-6.6-1.7-11.2-1.7h-2c-4.6,0-8.3,0.6-11.2,1.7
	c-2.9,0.9-5.2,2.3-6.9,4.4c-1.7,1.7-2.9,3.8-3.7,6.4c-0.6,2.6-1.1,5.2-1.1,7.8v42.4h2.6l9.4-5.5v-15.7l0.9,0.3c2,0.6,3.7,1.2,6,1.5
	c2,0.3,4.3,0.6,6.6,0.6c4.6,0,8.3-0.6,11.2-1.7c2.9-1.2,5.2-2.3,6.9-4.4c1.7-1.7,2.9-4.1,3.7-6.4c0.6-2.3,1.1-4.9,1.1-7.8v-3.2
	C532.8,226.5,532.5,223.9,531.7,221.3z M520.8,235c0,1.5-0.6,2.6-1.4,3.8c-0.9,1.2-2,1.7-3.4,2.3c-1.4,0.6-3.7,0.9-6.6,0.9
	c-2.3,0-4.6-0.3-6.6-0.6c-2-0.3-4-0.9-5.7-1.5h-0.3v-9c0-1.5,0-2.6,0.3-4.1c0-1.5,0.6-2.6,1.4-3.8c0.9-1.2,2-1.7,3.7-2.6
	c1.7-0.6,4-0.9,6.9-0.9c2.9,0,5.2,0.3,6.9,0.9c1.7,0.6,2.9,1.5,3.7,2.6c0.9,1.2,1.4,2.3,1.4,3.8c0,1.2,0.3,2.6,0.3,4.1
	C520.8,232.4,520.8,233.8,520.8,235z"/>
</svg>
